HIERARCHY
ROOT Hips
{
	OFFSET 0.000000 0.000000 0.000000
	CHANNELS 6 Xposition Yposition Zposition Zrotation Yrotation Xrotation 
	JOINT LHipJoint
	{
		OFFSET 0.000000 0.000000 0.000000
		CHANNELS 3 Zrotation Yrotation Xrotation
		JOINT LeftUpLeg
		{
			OFFSET 1.363060 -1.794630 0.839290
			CHANNELS 3 Zrotation Yrotation Xrotation
			JOINT LeftLeg
			{
				OFFSET 2.448110 -6.726130 0.000000
				CHANNELS 3 Zrotation Yrotation Xrotation
				JOINT LeftFoot
				{
					OFFSET 2.562200 -7.039590 0.000000
					CHANNELS 3 Zrotation Yrotation Xrotation
					JOINT LeftToeBase
					{
						OFFSET 0.157640 -0.433110 2.322550
						CHANNELS 3 Zrotation Yrotation Xrotation
						End Site
						{
							OFFSET 0.000000 0.000000 0.000000
						}
					}
				}
			}
		}
	}
	JOINT RHipJoint
	{
		OFFSET 0.000000 0.000000 0.000000
		CHANNELS 3 Zrotation Yrotation Xrotation
		JOINT RightUpLeg
		{
			OFFSET -1.305520 -1.794630 0.839290
			CHANNELS 3 Zrotation Yrotation Xrotation
			JOINT RightLeg
			{
				OFFSET -2.542530 -6.985550 0.000000
				CHANNELS 3 Zrotation Yrotation Xrotation
				JOINT RightFoot
				{
					OFFSET -2.568260 -7.056230 0.000000
					CHANNELS 3 Zrotation Yrotation Xrotation
					JOINT RightToeBase
					{
						OFFSET -0.164730 -0.452590 2.363150
						CHANNELS 3 Zrotation Yrotation Xrotation
						End Site
						{
							OFFSET 0.000000 0.000000 0.000000
						}
					}
				}
			}
		}
	}
}
MOTION
Frames: 33
Frame Time: 0.008333
8.423557 16.238608 2.261225 147.971553 -84.184790 -111.640454 -6.638640 0.200520 3.315267 -15.272059 -12.133596 -66.957892 -3.486368 0.982638 27.683601 0.699398 1.956768 -5.045986 0.569400 -0.000000 -38.774400 12.757357 -2.788505 -2.033908 3.276071 -5.061283 -7.871985 0.103143 -1.740119 24.543759 -1.093782 4.126794 34.018437 3.203500 0.000000 -58.995401
8.168167 16.107475 2.234059 145.183484 -84.215555 -109.680278 -6.587656 0.227018 3.037705 -15.817776 -12.196928 -67.551893 -3.079961 1.541324 32.569623 0.731208 1.966106 -5.548354 0.492900 0.000000 -36.083500 13.000120 -2.816018 -2.274169 2.710253 -6.605809 -7.541683 0.055390 -1.874910 26.901516 -1.165689 3.488874 33.137219 2.785100 0.000000 -58.322899
7.919132 15.986653 2.206790 142.442187 -84.149549 -107.825609 -6.523626 0.226314 2.721742 -16.424977 -12.174423 -67.824789 -2.686240 2.007716 37.245569 0.791963 2.051331 -6.412080 0.391500 -0.000000 -33.163800 13.255163 -2.798703 -2.551880 1.966974 -8.200565 -7.305300 -0.001091 -2.026865 29.479849 -1.245566 2.666214 32.057985 2.260000 0.000000 -57.975600
7.676674 15.879241 2.179985 139.982162 -83.989990 -106.277011 -6.452507 0.212708 2.383639 -17.081850 -12.073275 -67.760195 -2.335180 2.377935 41.539472 0.881582 2.227993 -7.615355 0.267200 -0.000000 -30.530100 13.513264 -2.732867 -2.855966 1.074899 -9.757689 -7.195794 -0.066031 -2.198190 32.270262 -1.334873 1.638063 30.772618 1.628300 -0.000001 -57.830300
7.440707 15.788078 2.154227 137.972243 -83.738766 -105.175416 -6.377871 0.200308 2.033949 -17.782420 -11.904122 -67.354811 -2.046242 2.658932 45.331761 1.000264 2.505490 -9.128140 0.115601 0.000000 -28.451600 13.767281 -2.616843 -3.173353 0.066455 -11.198132 -7.241249 -0.139005 -2.391100 35.248192 -1.435229 0.408325 29.294849 0.909800 -0.000000 -57.760001
7.210624 15.715099 2.130369 136.554594 -83.411504 -104.635128 -6.307081 0.195327 1.681284 -18.502540 -11.671031 -66.633421 -1.826155 2.862233 48.556455 1.146694 2.880945 -10.897172 -0.071200 0.000000 -27.085200 14.005682 -2.457638 -3.486560 -0.996303 -12.446639 -7.469912 -0.218986 -2.607318 38.377424 -1.547813 -1.008498 27.646788 0.131700 0.000000 -57.614400
6.985698 15.661342 2.109464 135.810957 -83.031067 -104.715808 -6.247562 0.196508 1.330754 -19.205713 -11.376706 -65.632455 -1.672791 2.998347 51.183869 1.319193 3.347954 -12.850397 -0.302000 -0.000000 -26.453500 14.216941 -2.267017 -3.780732 -2.040229 -13.446996 -7.903234 -0.305244 -2.847899 41.612885 -1.673110 -2.580538 25.860847 -0.669500 0.000000 -57.253600
6.764780 15.626986 2.092514 135.765135 -82.622329 -105.424518 -6.207204 0.199012 0.989185 -19.849385 -11.026141 -64.395089 -1.578496 3.075420 53.210849 1.514769 3.897288 -14.899130 -0.582100 -0.000000 -26.489299 14.390386 -2.061289 -4.041996 -2.991443 -14.165793 -8.554656 -0.398152 -3.111180 44.900034 -1.810609 -4.261990 23.978530 -1.454000 0.000001 -56.561000
6.546821 15.611333 2.080374 136.393267 -82.207756 -106.728404 -6.192364 0.196108 0.662128 -20.393384 -10.628368 -62.966560 -1.532475 3.099961 54.656410 1.728700 4.518946 -16.946526 -0.911100 0.000000 -27.053100 14.518363 -1.855828 -4.262713 -3.789549 -14.597020 -9.427161 -0.498722 -3.393167 48.182531 -1.958156 -5.995462 22.043492 -2.182300 -0.000000 -55.464300
6.330565 15.612933 2.073635 137.643121 -81.803673 -108.568681 -6.208179 0.182310 0.356182 -20.806223 -10.197573 -61.392757 -1.522621 3.077858 55.557782 1.954147 5.200728 -18.897507 -1.281600 -0.000000 -27.951100 14.595961 -1.663464 -4.439007 -4.393482 -14.756678 -10.514495 -0.608107 -3.686791 51.403458 -2.111850 -7.719099 20.097905 -2.821300 0.000000 -53.940200
6.114955 15.629830 2.072287 139.433183 -81.417121 -110.862467 -6.257361 0.155099 0.078870 -21.069008 -9.751497 -59.719216 -1.536914 3.015480 55.967827 2.182614 5.927975 -20.667776 -1.679600 -0.000000 -28.962500 14.621659 -1.492336 -4.569849 -4.782028 -14.677922 -11.802330 -0.726962 -3.982437 54.508745 -2.266313 -9.372843 18.178234 -3.347200 0.000000 -52.015900
5.898937 15.659789 2.076335 141.676114 -81.056465 -113.521487 -6.340362 0.114323 -0.162472 -21.175725 -9.309847 -57.989240 -1.563857 2.919423 55.951466 2.404816 6.682967 -22.190571 -2.085800 0.000000 -29.883399 14.596866 -1.346386 -4.656497 -4.951143 -14.404721 -13.270100 -0.854079 -4.269598 57.449484 -2.415151 -10.902610 16.311860 -3.746600 0.000000 -49.763100
5.681858 15.700466 2.084880 144.252459 -80.722637 -116.430011 -6.453664 0.063774 -0.360548 -21.133022 -8.890864 -56.241505 -1.594064 2.796890 55.580758 2.611998 7.445812 -23.421408 -2.478800 0.000000 -30.570100 14.527462 -1.224966 -4.700685 -4.910510 -13.987305 -14.892568 -0.986752 -4.537785 60.183376 -2.551922 -12.263675 14.515820 -4.015401 0.000000 -47.287000
5.463181 15.749653 2.097075 147.045796 -80.422514 -119.475203 -6.592106 0.008331 -0.510751 -20.958154 -8.508547 -54.508140 -1.620406 2.654853 54.929361 2.796939 8.194704 -24.341099 -2.837400 0.000000 -30.957300 14.420856 -1.125258 -4.705666 -4.678659 -13.476426 -16.641591 -1.120094 -4.778738 62.675650 -2.670486 -13.420259 12.796752 -4.156000 -0.000000 -44.712500
5.242980 15.805442 2.111738 149.932354 -80.163966 -122.541122 -6.748731 -0.046907 -0.612775 -20.674822 -8.170327 -52.813305 -1.638714 2.500110 54.068512 2.954477 8.906727 -24.955538 -3.144600 0.000000 -31.054100 14.285771 -1.042384 -4.677008 -4.279700 -12.920763 -18.487223 -1.247988 -4.987442 64.899680 -2.765610 -14.345989 11.152655 -4.175999 0.000000 -42.169901
5.021368 15.866307 2.127574 152.797032 -79.954291 -125.521563 -6.917876 -0.096020 -0.668431 -20.311810 -7.875735 -51.171177 -1.648145 2.338991 53.059807 3.081908 9.559749 -25.293636 -3.389099 0.000000 -30.918700 14.129025 -0.971761 -4.620091 -3.741355 -12.362171 -20.398051 -1.363939 -5.161241 66.834893 -2.832963 -15.021970 9.575205 -4.085800 -0.000001 -39.771900
4.798873 15.931218 2.143480 155.545921 -79.802171 -128.335739 -7.095039 -0.134847 -0.684899 -19.896790 -7.616283 -49.586651 -1.650548 2.177136 51.952494 3.178170 10.132591 -25.399626 -3.566300 0.000000 -30.640500 13.955178 -0.908398 -4.543236 -3.090392 -11.834015 -22.342305 -1.461551 -5.300308 68.466322 -2.869161 -15.436052 8.053760 -3.898000 0.000001 -37.611100
4.575833 15.999566 2.158398 158.110576 -79.713839 -130.926281 -7.277041 -0.159429 -0.671691 -19.455442 -7.376837 -48.053792 -1.649712 2.018951 50.781216 3.243455 10.607084 -25.324476 -3.677200 0.000000 -30.323100 13.767391 -0.848493 -4.454640 -2.353595 -11.359891 -24.287304 -1.535066 -5.406303 69.783468 -2.871539 -15.580902 6.578383 -3.627200 0.000000 -35.745600
4.352786 16.071083 2.171595 160.448382 -79.692134 -133.267399 -7.462786 -0.166926 -0.639897 -19.007786 -7.137754 -46.559207 -1.650460 1.867988 49.565097 3.278245 10.968274 -25.116044 -3.726400 0.000000 -30.074099 13.566296 -0.788610 -4.362447 -1.555333 -10.952553 -26.200886 -1.579862 -5.481386 70.779821 -2.838298 -15.454975 5.143404 -3.290400 -0.000000 -34.203100
4.129928 16.145727 2.182625 162.547888 -79.737648 -135.361910 -7.651701 -0.155943 -0.601173 -18.566570 -6.878094 -45.082112 -1.657160 1.726074 48.309667 3.282701 11.205087 -24.809158 -3.719200 0.000000 -29.998500 13.352678 -0.727073 -4.273913 -0.716937 -10.615765 -28.050595 -1.592198 -5.528229 71.451958 -2.768641 -15.063429 3.749895 -2.907300 0.000000 -32.974400
3.907453 16.223533 2.191287 164.414390 -79.847969 -137.231072 -7.843618 -0.126028 -0.565983 -18.138966 -6.577699 -43.598722 -1.673087 1.593986 47.011643 3.256397 11.310081 -24.421968 -3.659300 -0.000000 -30.193100 13.127769 -0.663182 -4.194144 0.141397 -10.346164 -29.806647 -1.569726 -5.549621 71.801851 -2.663134 -14.419699 2.406625 -2.499900 0.000000 -32.026300
3.685517 16.304470 2.197640 166.073370 -80.018903 -138.915509 -8.038731 -0.078459 -0.543246 -17.724383 -6.220153 -42.085763 -1.699586 1.471537 45.661667 3.198164 11.279796 -23.951554 -3.547300 0.000001 -30.739001 12.893208 -0.597110 -4.126689 1.003149 -10.134719 -31.443117 -1.511510 -5.548348 71.836048 -2.524362 -13.549007 1.129969 -2.091401 -0.000000 -31.300000
3.464108 16.388298 2.201829 167.557963 -80.245522 -140.459582 -8.236637 -0.015357 -0.538317 -17.317924 -5.796239 -40.526423 -1.735807 1.357950 44.252091 3.106878 11.115172 -23.379443 -3.382100 0.000000 -31.686700 12.652109 -0.529829 -4.072137 1.853334 -9.970061 -32.941938 -1.418255 -5.527396 71.568132 -2.357267 -12.489351 -0.060250 -1.703600 0.000000 -30.726300
3.242965 16.474660 2.204267 168.921728 -80.520869 -141.920208 -8.438142 0.060304 -0.553587 -16.908641 -5.303986 -38.915448 -1.779099 1.252737 42.777739 2.981658 10.820873 -22.674712 -3.161400 -0.000000 -33.054200 12.406186 -0.461659 -4.029535 2.683407 -9.836551 -34.295876 -1.292399 -5.488639 71.015649 -2.169665 -11.293909 -1.142268 -1.354800 0.000000 -30.241100
3.021690 16.562915 2.205321 170.220029 -80.839332 -143.349752 -8.643302 0.145476 -0.587158 -16.484173 -4.751020 -37.258766 -1.825149 1.155430 41.241097 2.823081 10.406500 -21.803619 -2.885300 0.000001 -34.812000 12.157886 -0.393293 -3.995328 3.487300 -9.719311 -35.507563 -1.137844 -5.433864 70.200889 -1.971659 -10.027616 -2.098927 -1.057299 0.000000 -29.803600
2.799823 16.652307 2.205376 171.518869 -81.195799 -144.804187 -8.852694 0.237076 -0.634476 -16.030380 -4.152965 -35.574456 -1.868566 1.066392 39.652520 2.633447 9.886723 -20.733063 -2.557300 -0.000001 -36.922000 11.908283 -0.324760 -3.965341 4.264722 -9.603222 -36.589408 -0.959605 -5.364057 69.147676 -1.774943 -8.763736 -2.920663 -0.816401 0.000000 -29.411500
2.576986 16.741883 2.204685 172.861950 -81.588311 -146.314379 -9.064145 0.332487 -0.688550 -15.540452 -3.534842 -33.887418 -1.903912 0.985883 38.031792 2.418036 9.280962 -19.445823 -2.187900 0.000000 -39.266400 11.660150 -0.256402 -3.933847 5.013084 -9.477067 -37.561582 -0.762980 -5.281197 67.881931 -1.591213 -7.575144 -3.611910 -0.630600 -0.000000 -29.086801
2.352799 16.830734 2.203422 174.302979 -82.015266 -147.917608 -9.276702 0.429670 -0.741888 -15.008033 -2.924112 -32.227497 -1.926183 0.915078 36.403204 2.184084 8.612519 -17.934707 -1.791500 0.000000 -41.772400 11.413891 -0.188042 -3.896086 5.733839 -9.331166 -38.445500 -0.552876 -5.186031 66.424713 -1.431349 -6.530242 -4.187156 -0.494300 0.000000 -28.881500
2.127009 16.917899 2.201596 175.878373 -82.476444 -149.633571 -9.487840 0.527421 -0.787050 -14.434624 -2.350324 -30.623879 -1.931748 0.854947 34.795220 1.940991 7.906775 -16.212764 -1.387300 -0.000000 -44.335800 11.170343 -0.119660 -3.847234 6.425671 -9.160003 -39.262921 -0.333082 -5.079454 64.792532 -1.304140 -5.684060 -4.671148 -0.399400 -0.000000 -28.847101
1.899587 17.002496 2.199105 177.606797 -82.970652 -151.468395 -9.694386 0.625578 -0.817873 -13.828778 -1.840715 -29.100958 -1.918986 0.806296 33.235281 1.699321 7.190148 -14.311432 -0.995800 0.000000 -46.866999 10.929970 -0.050543 -3.783234 7.083636 -8.961157 -40.031009 -0.106296 -4.961603 62.995896 -1.215839 -5.073734 -5.093655 -0.337800 0.000000 -29.022901
1.670572 17.083738 2.195699 179.511407 -83.497972 -153.435520 -9.893026 0.723681 -0.830408 -13.200633 -1.416601 -27.676164 -1.887856 0.769070 31.746324 1.469134 6.487150 -12.273918 -0.635101 -0.000000 -49.316200 10.692857 0.019424 -3.700751 7.702652 -8.733822 -40.760694 0.126376 -4.831826 61.034621 -1.170176 -4.716571 -5.481486 -0.302300 -0.000001 -29.421800
1.440128 17.160999 2.191094 -178.383194 -84.057024 -155.555503 -10.080138 0.821336 -0.823123 -12.563584 -1.092143 -26.358017 -1.839954 0.742339 30.344418 1.259147 5.820084 -10.152279 -0.318900 0.000000 -51.656000 10.459303 0.090285 -3.597043 8.275147 -8.478396 -41.455579 0.364749 -4.688631 58.901657 -1.168164 -4.607911 -5.854817 -0.287000 -0.000000 -30.012000
1.208264 17.233670 2.185027 -176.028321 -84.645551 -157.873951 -10.252462 0.918010 -0.796694 -11.930527 -0.873490 -25.146202 -1.777932 0.724186 29.037519 1.075735 5.207863 -8.001406 -0.054600 0.000000 -53.885900 10.229888 0.161494 -3.469354 8.792561 -8.194382 -42.113024 0.609356 -4.529504 56.583290 -1.207909 -4.721272 -6.223136 -0.287200 0.000000 -30.707100
